<mxfile host="Electron" modified="2024-06-16T18:08:11.352Z" agent="Mozilla/5.0 (Macintosh; Intel Mac OS X 10_15_7) AppleWebKit/537.36 (KHTML, like Gecko) draw.io/24.2.5 Chrome/120.0.6099.109 Electron/28.1.0 Safari/537.36" etag="JpWvcNLbikLkOVsxiurc" version="24.2.5" type="device">
  <diagram name="Page-1" id="fh6ewi8ECffMGoOR9tfA">
    <mxGraphModel dx="1207" dy="772" grid="1" gridSize="10" guides="1" tooltips="1" connect="1" arrows="1" fold="1" page="1" pageScale="1" pageWidth="827" pageHeight="1169" math="0" shadow="0">
      <root>
        <mxCell id="0" />
        <mxCell id="1" parent="0" />
        <mxCell id="O_0Q9qe8CEwM6nE0LGXc-19" value="Search Service" style="rounded=1;whiteSpace=wrap;html=1;" vertex="1" parent="1">
          <mxGeometry x="230" y="160" width="140" height="370" as="geometry" />
        </mxCell>
        <mxCell id="O_0Q9qe8CEwM6nE0LGXc-7" style="edgeStyle=orthogonalEdgeStyle;rounded=0;orthogonalLoop=1;jettySize=auto;html=1;entryX=0;entryY=0.5;entryDx=0;entryDy=0;" edge="1" parent="1" source="O_0Q9qe8CEwM6nE0LGXc-1" target="O_0Q9qe8CEwM6nE0LGXc-5">
          <mxGeometry relative="1" as="geometry" />
        </mxCell>
        <mxCell id="O_0Q9qe8CEwM6nE0LGXc-1" value="Пользователь" style="shape=umlActor;verticalLabelPosition=bottom;verticalAlign=top;html=1;outlineConnect=0;" vertex="1" parent="1">
          <mxGeometry x="80" y="450" width="30" height="60" as="geometry" />
        </mxCell>
        <mxCell id="O_0Q9qe8CEwM6nE0LGXc-4" style="edgeStyle=orthogonalEdgeStyle;rounded=0;orthogonalLoop=1;jettySize=auto;html=1;" edge="1" parent="1" source="O_0Q9qe8CEwM6nE0LGXc-2" target="O_0Q9qe8CEwM6nE0LGXc-3">
          <mxGeometry relative="1" as="geometry" />
        </mxCell>
        <mxCell id="O_0Q9qe8CEwM6nE0LGXc-2" value="Создатель контента" style="shape=umlActor;verticalLabelPosition=bottom;verticalAlign=top;html=1;outlineConnect=0;" vertex="1" parent="1">
          <mxGeometry x="80" y="210" width="30" height="60" as="geometry" />
        </mxCell>
        <mxCell id="O_0Q9qe8CEwM6nE0LGXc-3" value="&lt;b&gt;/index&lt;/b&gt;" style="rounded=0;whiteSpace=wrap;html=1;fillColor=#f5f5f5;fontColor=#333333;strokeColor=#666666;" vertex="1" parent="1">
          <mxGeometry x="240" y="210" width="120" height="60" as="geometry" />
        </mxCell>
        <mxCell id="O_0Q9qe8CEwM6nE0LGXc-5" value="&lt;b&gt;/search&lt;/b&gt;" style="rounded=0;whiteSpace=wrap;html=1;fillColor=#f5f5f5;fontColor=#333333;strokeColor=#666666;" vertex="1" parent="1">
          <mxGeometry x="240" y="450" width="120" height="60" as="geometry" />
        </mxCell>
        <mxCell id="O_0Q9qe8CEwM6nE0LGXc-8" value="Векторная БД" style="shape=cylinder3;whiteSpace=wrap;html=1;boundedLbl=1;backgroundOutline=1;size=15;" vertex="1" parent="1">
          <mxGeometry x="460" y="440" width="80" height="80" as="geometry" />
        </mxCell>
        <mxCell id="O_0Q9qe8CEwM6nE0LGXc-9" style="edgeStyle=orthogonalEdgeStyle;rounded=0;orthogonalLoop=1;jettySize=auto;html=1;entryX=0;entryY=0.5;entryDx=0;entryDy=0;entryPerimeter=0;" edge="1" parent="1" source="O_0Q9qe8CEwM6nE0LGXc-5" target="O_0Q9qe8CEwM6nE0LGXc-8">
          <mxGeometry relative="1" as="geometry" />
        </mxCell>
        <mxCell id="O_0Q9qe8CEwM6nE0LGXc-23" style="edgeStyle=orthogonalEdgeStyle;rounded=0;orthogonalLoop=1;jettySize=auto;html=1;entryX=0.5;entryY=0;entryDx=0;entryDy=0;" edge="1" parent="1" source="O_0Q9qe8CEwM6nE0LGXc-10" target="O_0Q9qe8CEwM6nE0LGXc-18">
          <mxGeometry relative="1" as="geometry" />
        </mxCell>
        <mxCell id="O_0Q9qe8CEwM6nE0LGXc-25" style="edgeStyle=orthogonalEdgeStyle;rounded=0;orthogonalLoop=1;jettySize=auto;html=1;entryX=0.5;entryY=0;entryDx=0;entryDy=0;exitX=1;exitY=0.5;exitDx=0;exitDy=0;exitPerimeter=0;" edge="1" parent="1" source="O_0Q9qe8CEwM6nE0LGXc-33" target="O_0Q9qe8CEwM6nE0LGXc-21">
          <mxGeometry relative="1" as="geometry" />
        </mxCell>
        <mxCell id="O_0Q9qe8CEwM6nE0LGXc-36" style="edgeStyle=orthogonalEdgeStyle;rounded=0;orthogonalLoop=1;jettySize=auto;html=1;entryX=0.5;entryY=0;entryDx=0;entryDy=0;" edge="1" parent="1" source="O_0Q9qe8CEwM6nE0LGXc-10" target="O_0Q9qe8CEwM6nE0LGXc-20">
          <mxGeometry relative="1" as="geometry" />
        </mxCell>
        <mxCell id="O_0Q9qe8CEwM6nE0LGXc-10" value="" style="shape=cylinder3;whiteSpace=wrap;html=1;boundedLbl=1;backgroundOutline=1;size=15;rotation=90;" vertex="1" parent="1">
          <mxGeometry x="702.5" y="12.5" width="60" height="455" as="geometry" />
        </mxCell>
        <mxCell id="O_0Q9qe8CEwM6nE0LGXc-11" style="edgeStyle=orthogonalEdgeStyle;rounded=0;orthogonalLoop=1;jettySize=auto;html=1;entryX=0;entryY=1;entryDx=0;entryDy=-15;entryPerimeter=0;exitX=0.75;exitY=0;exitDx=0;exitDy=0;" edge="1" parent="1" source="O_0Q9qe8CEwM6nE0LGXc-3" target="O_0Q9qe8CEwM6nE0LGXc-10">
          <mxGeometry relative="1" as="geometry">
            <Array as="points">
              <mxPoint x="330" y="190" />
              <mxPoint x="520" y="190" />
            </Array>
          </mxGeometry>
        </mxCell>
        <mxCell id="O_0Q9qe8CEwM6nE0LGXc-15" value="аудио" style="edgeLabel;html=1;align=center;verticalAlign=middle;resizable=0;points=[];" vertex="1" connectable="0" parent="O_0Q9qe8CEwM6nE0LGXc-11">
          <mxGeometry x="-0.0957" relative="1" as="geometry">
            <mxPoint as="offset" />
          </mxGeometry>
        </mxCell>
        <mxCell id="O_0Q9qe8CEwM6nE0LGXc-12" style="edgeStyle=orthogonalEdgeStyle;rounded=0;orthogonalLoop=1;jettySize=auto;html=1;entryX=0.5;entryY=1;entryDx=0;entryDy=0;entryPerimeter=0;" edge="1" parent="1" source="O_0Q9qe8CEwM6nE0LGXc-3" target="O_0Q9qe8CEwM6nE0LGXc-10">
          <mxGeometry relative="1" as="geometry" />
        </mxCell>
        <mxCell id="O_0Q9qe8CEwM6nE0LGXc-14" value="видео" style="edgeLabel;html=1;align=center;verticalAlign=middle;resizable=0;points=[];" vertex="1" connectable="0" parent="O_0Q9qe8CEwM6nE0LGXc-12">
          <mxGeometry x="-0.1862" y="1" relative="1" as="geometry">
            <mxPoint as="offset" />
          </mxGeometry>
        </mxCell>
        <mxCell id="O_0Q9qe8CEwM6nE0LGXc-13" style="edgeStyle=orthogonalEdgeStyle;rounded=0;orthogonalLoop=1;jettySize=auto;html=1;exitX=0.75;exitY=1;exitDx=0;exitDy=0;entryX=1;entryY=1;entryDx=0;entryDy=-15;entryPerimeter=0;" edge="1" parent="1" source="O_0Q9qe8CEwM6nE0LGXc-3" target="O_0Q9qe8CEwM6nE0LGXc-10">
          <mxGeometry relative="1" as="geometry">
            <Array as="points">
              <mxPoint x="330" y="290" />
              <mxPoint x="520" y="290" />
            </Array>
          </mxGeometry>
        </mxCell>
        <mxCell id="O_0Q9qe8CEwM6nE0LGXc-16" value="описание" style="edgeLabel;html=1;align=center;verticalAlign=middle;resizable=0;points=[];" vertex="1" connectable="0" parent="O_0Q9qe8CEwM6nE0LGXc-13">
          <mxGeometry x="-0.0783" y="2" relative="1" as="geometry">
            <mxPoint as="offset" />
          </mxGeometry>
        </mxCell>
        <mxCell id="O_0Q9qe8CEwM6nE0LGXc-17" value="Kafka" style="text;html=1;align=center;verticalAlign=middle;whiteSpace=wrap;rounded=0;" vertex="1" parent="1">
          <mxGeometry x="662.5" y="225" width="140" height="30" as="geometry" />
        </mxCell>
        <mxCell id="O_0Q9qe8CEwM6nE0LGXc-27" style="edgeStyle=orthogonalEdgeStyle;rounded=0;orthogonalLoop=1;jettySize=auto;html=1;entryX=0.5;entryY=0;entryDx=0;entryDy=0;exitX=0.5;exitY=1;exitDx=0;exitDy=0;" edge="1" parent="1" source="O_0Q9qe8CEwM6nE0LGXc-18" target="O_0Q9qe8CEwM6nE0LGXc-26">
          <mxGeometry relative="1" as="geometry" />
        </mxCell>
        <mxCell id="O_0Q9qe8CEwM6nE0LGXc-18" value="Обработка аудио" style="rounded=0;whiteSpace=wrap;html=1;" vertex="1" parent="1">
          <mxGeometry x="512" y="330" width="120" height="60" as="geometry" />
        </mxCell>
        <mxCell id="O_0Q9qe8CEwM6nE0LGXc-28" style="edgeStyle=orthogonalEdgeStyle;rounded=0;orthogonalLoop=1;jettySize=auto;html=1;entryX=0.5;entryY=0;entryDx=0;entryDy=0;" edge="1" parent="1" source="O_0Q9qe8CEwM6nE0LGXc-37" target="O_0Q9qe8CEwM6nE0LGXc-26">
          <mxGeometry relative="1" as="geometry" />
        </mxCell>
        <mxCell id="O_0Q9qe8CEwM6nE0LGXc-40" style="edgeStyle=orthogonalEdgeStyle;rounded=0;orthogonalLoop=1;jettySize=auto;html=1;entryX=0.5;entryY=0;entryDx=0;entryDy=0;" edge="1" parent="1" source="O_0Q9qe8CEwM6nE0LGXc-20" target="O_0Q9qe8CEwM6nE0LGXc-26">
          <mxGeometry relative="1" as="geometry" />
        </mxCell>
        <mxCell id="O_0Q9qe8CEwM6nE0LGXc-20" value="Обработка текста" style="rounded=0;whiteSpace=wrap;html=1;" vertex="1" parent="1">
          <mxGeometry x="672" y="330" width="120" height="60" as="geometry" />
        </mxCell>
        <mxCell id="O_0Q9qe8CEwM6nE0LGXc-29" style="edgeStyle=orthogonalEdgeStyle;rounded=0;orthogonalLoop=1;jettySize=auto;html=1;entryX=0.5;entryY=0;entryDx=0;entryDy=0;exitX=0.5;exitY=1;exitDx=0;exitDy=0;" edge="1" parent="1" source="O_0Q9qe8CEwM6nE0LGXc-21" target="O_0Q9qe8CEwM6nE0LGXc-26">
          <mxGeometry relative="1" as="geometry" />
        </mxCell>
        <mxCell id="O_0Q9qe8CEwM6nE0LGXc-21" value="Обработка описания" style="rounded=0;whiteSpace=wrap;html=1;" vertex="1" parent="1">
          <mxGeometry x="852" y="330" width="120" height="60" as="geometry" />
        </mxCell>
        <mxCell id="O_0Q9qe8CEwM6nE0LGXc-26" value="Менеджер эмбеддингов" style="rounded=0;whiteSpace=wrap;html=1;" vertex="1" parent="1">
          <mxGeometry x="672" y="450" width="120" height="60" as="geometry" />
        </mxCell>
        <mxCell id="O_0Q9qe8CEwM6nE0LGXc-30" style="edgeStyle=orthogonalEdgeStyle;rounded=0;orthogonalLoop=1;jettySize=auto;html=1;entryX=1;entryY=0.5;entryDx=0;entryDy=0;entryPerimeter=0;" edge="1" parent="1" source="O_0Q9qe8CEwM6nE0LGXc-26" target="O_0Q9qe8CEwM6nE0LGXc-8">
          <mxGeometry relative="1" as="geometry" />
        </mxCell>
        <mxCell id="O_0Q9qe8CEwM6nE0LGXc-31" value="&lt;font style=&quot;font-size: 26px;&quot;&gt;1&lt;/font&gt;" style="ellipse;whiteSpace=wrap;html=1;aspect=fixed;" vertex="1" parent="1">
          <mxGeometry x="160" y="200" width="25" height="25" as="geometry" />
        </mxCell>
        <mxCell id="O_0Q9qe8CEwM6nE0LGXc-32" value="&lt;font style=&quot;font-size: 26px;&quot;&gt;2&lt;/font&gt;" style="ellipse;whiteSpace=wrap;html=1;aspect=fixed;" vertex="1" parent="1">
          <mxGeometry x="510" y="225" width="25" height="25" as="geometry" />
        </mxCell>
        <mxCell id="O_0Q9qe8CEwM6nE0LGXc-33" value="&lt;font style=&quot;font-size: 26px;&quot;&gt;3&lt;/font&gt;" style="ellipse;whiteSpace=wrap;html=1;aspect=fixed;" vertex="1" parent="1">
          <mxGeometry x="720" y="289" width="25" height="25" as="geometry" />
        </mxCell>
        <mxCell id="O_0Q9qe8CEwM6nE0LGXc-37" value="&lt;font style=&quot;font-size: 26px;&quot;&gt;4&lt;/font&gt;" style="ellipse;whiteSpace=wrap;html=1;aspect=fixed;" vertex="1" parent="1">
          <mxGeometry x="720" y="410" width="25" height="25" as="geometry" />
        </mxCell>
        <mxCell id="O_0Q9qe8CEwM6nE0LGXc-41" value="&lt;font style=&quot;font-size: 26px;&quot;&gt;5&lt;/font&gt;" style="ellipse;whiteSpace=wrap;html=1;aspect=fixed;" vertex="1" parent="1">
          <mxGeometry x="160" y="450" width="25" height="25" as="geometry" />
        </mxCell>
        <mxCell id="O_0Q9qe8CEwM6nE0LGXc-42" value="&lt;font style=&quot;font-size: 26px;&quot;&gt;6&lt;/font&gt;" style="ellipse;whiteSpace=wrap;html=1;aspect=fixed;" vertex="1" parent="1">
          <mxGeometry x="485" y="410" width="25" height="25" as="geometry" />
        </mxCell>
      </root>
    </mxGraphModel>
  </diagram>
</mxfile>
